<?xml version="1.0" encoding="UTF-8"?>
<!DOCTYPE svg PUBLIC "-//W3C//DTD SVG 1.1//EN" "http://www.w3.org/Graphics/SVG/1.1/DTD/svg11.dtd">
<svg xmlns="http://www.w3.org/2000/svg" version="1.1" width="397px" height="394px" style="shape-rendering:geometricPrecision; text-rendering:geometricPrecision; image-rendering:optimizeQuality; fill-rule:evenodd; clip-rule:evenodd" xmlns:xlink="http://www.w3.org/1999/xlink">
<g><path style="opacity:1" fill="#fefefe" d="M -0.5,-0.5 C 56.1667,-0.5 112.833,-0.5 169.5,-0.5C 158.974,1.38163 148.64,4.0483 138.5,7.5C 130.968,9.00701 123.968,11.6737 117.5,15.5C 79.0226,31.9057 49.356,58.239 28.5,94.5C 27.9213,97.3311 26.588,99.6644 24.5,101.5C 7.99699,130.676 -0.00300607,162.176 0.5,196C 1.65684,265.992 30.6568,320.992 87.5,361C 115.092,378.696 145.092,389.529 177.5,393.5C 118.167,393.5 58.8333,393.5 -0.5,393.5C -0.5,262.167 -0.5,130.833 -0.5,-0.5 Z"/></g>
<g><path style="opacity:1" fill="#cff2ef" d="M 169.5,-0.5 C 172.5,-0.5 175.5,-0.5 178.5,-0.5C 165.156,1.50212 151.823,4.16879 138.5,7.5C 148.64,4.0483 158.974,1.38163 169.5,-0.5 Z"/></g>
<g><path style="opacity:1" fill="#90e0dd" d="M 178.5,-0.5 C 191.833,-0.5 205.167,-0.5 218.5,-0.5C 230.462,1.38585 242.462,3.71918 254.5,6.5C 272.544,12.8539 289.878,20.8539 306.5,30.5C 306.973,31.9063 307.973,32.573 309.5,32.5C 314.877,37.2097 320.543,41.543 326.5,45.5C 333.5,53.1667 340.833,60.5 348.5,67.5C 353.503,74.1752 358.503,80.8419 363.5,87.5C 367.251,94.6707 371.251,101.671 375.5,108.5C 405.066,176.047 400.899,241.381 363,304.5C 317.909,367.623 256.409,396.79 178.5,392C 98.4833,380.964 43.3166,338.131 13,263.5C -5.57324,207.877 -1.73991,153.877 24.5,101.5C 26.588,99.6644 27.9213,97.3311 28.5,94.5C 50.5973,59.6213 80.264,33.288 117.5,15.5C 124.72,13.2078 131.72,10.5411 138.5,7.5C 151.823,4.16879 165.156,1.50212 178.5,-0.5 Z"/></g>
<g><path style="opacity:1" fill="#cff2ef" d="M 218.5,-0.5 C 221.5,-0.5 224.5,-0.5 227.5,-0.5C 236.69,1.0476 245.69,3.38093 254.5,6.5C 242.462,3.71918 230.462,1.38585 218.5,-0.5 Z"/></g>
<g><path style="opacity:1" fill="#fefefe" d="M 227.5,-0.5 C 283.833,-0.5 340.167,-0.5 396.5,-0.5C 396.5,63.1667 396.5,126.833 396.5,190.5C 395.554,167.602 391.054,145.269 383,123.5C 380.981,118.129 378.481,113.129 375.5,108.5C 372.78,100.721 368.78,93.7211 363.5,87.5C 359.957,79.7514 354.957,73.0848 348.5,67.5C 348.631,66.7611 348.464,66.0944 348,65.5C 341.244,58.2389 334.078,51.5722 326.5,45.5C 321.692,40.0236 316.026,35.6903 309.5,32.5C 307.973,32.573 306.973,31.9063 306.5,30.5C 290.739,19.2887 273.405,11.2887 254.5,6.5C 245.69,3.38093 236.69,1.0476 227.5,-0.5 Z"/></g>
<g><path style="opacity:1" fill="#cff2ef" d="M 254.5,6.5 C 273.405,11.2887 290.739,19.2887 306.5,30.5C 289.878,20.8539 272.544,12.8539 254.5,6.5 Z"/></g>
<g><path style="opacity:1" fill="#cff2ef" d="M 138.5,7.5 C 131.72,10.5411 124.72,13.2078 117.5,15.5C 123.968,11.6737 130.968,9.00701 138.5,7.5 Z"/></g>
<g><path style="opacity:1" fill="#cff2ef" d="M 117.5,15.5 C 80.264,33.288 50.5973,59.6213 28.5,94.5C 49.356,58.239 79.0226,31.9057 117.5,15.5 Z"/></g>
<g><path style="opacity:1" fill="#cff2ef" d="M 309.5,32.5 C 316.026,35.6903 321.692,40.0236 326.5,45.5C 320.543,41.543 314.877,37.2097 309.5,32.5 Z"/></g>
<g><path style="opacity:1" fill="#cff2ef" d="M 326.5,45.5 C 334.078,51.5722 341.244,58.2389 348,65.5C 348.464,66.0944 348.631,66.7611 348.5,67.5C 340.833,60.5 333.5,53.1667 326.5,45.5 Z"/></g>
<g><path style="opacity:1" fill="#cff2ef" d="M 348.5,67.5 C 354.957,73.0848 359.957,79.7514 363.5,87.5C 358.503,80.8419 353.503,74.1752 348.5,67.5 Z"/></g>
<g><path style="opacity:1" fill="#00bc7c" d="M 301.5,220.5 C 298.507,216.521 296.007,212.188 294,207.5C 288.991,195.133 283.991,182.8 279,170.5C 260.431,180.616 243.264,178.616 227.5,164.5C 227.217,163.711 226.717,163.044 226,162.5C 225.501,166.486 225.334,170.486 225.5,174.5C 224.991,180.506 221.824,184.173 216,185.5C 211.616,184.594 207.449,183.094 203.5,181C 196.051,176.048 189.051,170.548 182.5,164.5C 182.217,163.711 181.717,163.044 181,162.5C 180.503,164.81 180.337,167.143 180.5,169.5C 179.883,171.229 178.883,172.729 177.5,174C 173.406,174.767 169.406,174.434 165.5,173C 154.242,167.734 144.075,160.9 135,152.5C 114.689,169.436 102.356,191.102 98,217.5C 97.1841,218.823 96.0174,219.489 94.5,219.5C 88.7317,214.982 85.2317,208.982 84,201.5C 72.6559,147.362 91.4892,107.862 140.5,83C 168.705,72.1819 197.705,69.5152 227.5,75C 263.949,83.1385 290.782,103.638 308,136.5C 315.096,153.492 317.429,171.159 315,189.5C 314.803,200.03 312.469,210.03 308,219.5C 307,220.167 306,220.833 305,221.5C 303.989,220.663 302.822,220.33 301.5,220.5 Z"/></g>
<g><path style="opacity:1" fill="#cff2ef" d="M 363.5,87.5 C 368.78,93.7211 372.78,100.721 375.5,108.5C 371.251,101.671 367.251,94.6707 363.5,87.5 Z"/></g>
<g><path style="opacity:1" fill="#cff2ef" d="M 24.5,101.5 C -1.73991,153.877 -5.57324,207.877 13,263.5C 43.3166,338.131 98.4833,380.964 178.5,392C 256.409,396.79 317.909,367.623 363,304.5C 400.899,241.381 405.066,176.047 375.5,108.5C 378.481,113.129 380.981,118.129 383,123.5C 391.054,145.269 395.554,167.602 396.5,190.5C 396.5,194.167 396.5,197.833 396.5,201.5C 391.1,283.474 351.433,342.307 277.5,378C 258.41,385.854 238.744,391.021 218.5,393.5C 204.833,393.5 191.167,393.5 177.5,393.5C 145.092,389.529 115.092,378.696 87.5,361C 30.6568,320.992 1.65684,265.992 0.5,196C -0.00300607,162.176 7.99699,130.676 24.5,101.5 Z"/></g>
<g><path style="opacity:1" fill="#f6dece" d="M 180.5,169.5 C 181.167,167.833 181.833,166.167 182.5,164.5C 189.051,170.548 196.051,176.048 203.5,181C 207.449,183.094 211.616,184.594 216,185.5C 221.824,184.173 224.991,180.506 225.5,174.5C 226.167,171.167 226.833,167.833 227.5,164.5C 243.264,178.616 260.431,180.616 279,170.5C 283.991,182.8 288.991,195.133 294,207.5C 296.007,212.188 298.507,216.521 301.5,220.5C 301.5,220.833 301.5,221.167 301.5,221.5C 300.906,265.495 284.573,302.328 252.5,332C 215.03,359.825 178.03,359.159 141.5,330C 110.655,299.79 94.9882,262.957 94.5,219.5C 96.0174,219.489 97.1841,218.823 98,217.5C 102.356,191.102 114.689,169.436 135,152.5C 144.075,160.9 154.242,167.734 165.5,173C 169.406,174.434 173.406,174.767 177.5,174C 178.883,172.729 179.883,171.229 180.5,169.5 Z"/></g>
<g><path style="opacity:1" fill="#a6c3a6" d="M 227.5,164.5 C 226.833,167.833 226.167,171.167 225.5,174.5C 225.334,170.486 225.501,166.486 226,162.5C 226.717,163.044 227.217,163.711 227.5,164.5 Z"/></g>
<g><path style="opacity:1" fill="#96bda1" d="M 182.5,164.5 C 181.833,166.167 181.167,167.833 180.5,169.5C 180.337,167.143 180.503,164.81 181,162.5C 181.717,163.044 182.217,163.711 182.5,164.5 Z"/></g>
<g><path style="opacity:1" fill="#fefffe" d="M 396.5,201.5 C 396.5,265.5 396.5,329.5 396.5,393.5C 337.167,393.5 277.833,393.5 218.5,393.5C 238.744,391.021 258.41,385.854 277.5,378C 351.433,342.307 391.1,283.474 396.5,201.5 Z"/></g>
<g><path style="opacity:1" fill="#671c0d" d="M 151.5,203.5 C 155.95,203.142 159.45,204.808 162,208.5C 162.667,216.833 162.667,225.167 162,233.5C 161.215,235.286 160.049,236.786 158.5,238C 155.5,238.667 152.5,238.667 149.5,238C 147.951,236.786 146.785,235.286 146,233.5C 145.333,225.167 145.333,216.833 146,208.5C 147.73,206.598 149.563,204.931 151.5,203.5 Z"/></g>
<g><path style="opacity:1" fill="#692010" d="M 239.5,203.5 C 244.55,203.274 248.383,205.274 251,209.5C 251.667,217.167 251.667,224.833 251,232.5C 248.646,238.095 244.479,239.928 238.5,238C 236.185,236.891 234.685,235.057 234,232.5C 233.333,224.833 233.333,217.167 234,209.5C 235.36,206.977 237.193,204.977 239.5,203.5 Z"/></g>
<g><path style="opacity:1" fill="#b5e0d8" d="M 94.5,219.5 C 94.9882,262.957 110.655,299.79 141.5,330C 178.03,359.159 215.03,359.825 252.5,332C 284.573,302.328 300.906,265.495 301.5,221.5C 302.438,254.214 293.271,284.214 274,311.5C 260.438,329.733 242.938,342.566 221.5,350C 191.197,357.673 164.197,351.34 140.5,331C 108.956,300.425 93.6228,263.259 94.5,219.5 Z"/></g>
<g><path style="opacity:1" fill="#c36b51" d="M 186.5,256.5 C 194.174,256.334 201.841,256.5 209.5,257C 215.089,259.451 216.922,263.617 215,269.5C 213.773,271.726 211.939,273.226 209.5,274C 201.833,274.667 194.167,274.667 186.5,274C 178.555,268.17 178.555,262.336 186.5,256.5 Z"/></g>
<g><path style="opacity:1" fill="#fe9b99" d="M 246.5,270.5 C 251.328,270.385 252.661,272.552 250.5,277C 245.791,277.082 244.458,274.915 246.5,270.5 Z"/></g>
<g><path style="opacity:1" fill="#fe9897" d="M 267.5,277.5 C 275.877,277.274 277.544,280.441 272.5,287C 265.512,286.818 263.845,283.652 267.5,277.5 Z"/></g>
<g><path style="opacity:1" fill="#fe9b9a" d="M 252.5,280.5 C 256.31,281.754 256.31,282.754 252.5,283.5C 252.5,282.5 252.5,281.5 252.5,280.5 Z"/></g>
<g><path style="opacity:1" fill="#fe9797" d="M 244.5,287.5 C 251.628,287.706 253.294,290.873 249.5,297C 243.498,297.993 241.332,295.493 243,289.5C 243.717,288.956 244.217,288.289 244.5,287.5 Z"/></g>
<g><path style="opacity:1" fill="#fe9b9a" d="M 260.5,290.5 C 265.493,290.997 266.493,293.164 263.5,297C 258.382,296.824 257.382,294.658 260.5,290.5 Z"/></g>
<g><path style="opacity:1" fill="#c36b50" d="M 167.5,292.5 C 170.187,292.336 172.854,292.503 175.5,293C 184.992,300.166 195.659,302.499 207.5,300C 212.567,298.967 216.9,296.634 220.5,293C 227.461,291.153 231.795,293.653 233.5,300.5C 233.237,303.028 232.404,305.361 231,307.5C 218.075,317.133 203.575,320.633 187.5,318C 178.296,316.316 170.462,312.149 164,305.5C 162.627,303.305 162.294,300.971 163,298.5C 164.332,296.34 165.832,294.34 167.5,292.5 Z"/></g>
</svg>
