<?xml version="1.0" encoding="UTF-8"?>
<!DOCTYPE svg PUBLIC "-//W3C//DTD SVG 1.1//EN" "http://www.w3.org/Graphics/SVG/1.1/DTD/svg11.dtd">
<svg xmlns="http://www.w3.org/2000/svg" version="1.1" width="394px" height="394px" style="shape-rendering:geometricPrecision; text-rendering:geometricPrecision; image-rendering:optimizeQuality; fill-rule:evenodd; clip-rule:evenodd" xmlns:xlink="http://www.w3.org/1999/xlink">
<g><path style="opacity:1" fill="#fefffe" d="M -0.5,-0.5 C 56.8333,-0.5 114.167,-0.5 171.5,-0.5C 98.1709,11.3284 46.0042,50.995 15,118.5C 6.49755,139.504 1.33088,161.171 -0.5,183.5C -0.5,122.167 -0.5,60.8333 -0.5,-0.5 Z"/></g>
<g><path style="opacity:1" fill="#91e0dd" d="M 171.5,-0.5 C 188.5,-0.5 205.5,-0.5 222.5,-0.5C 293.389,11.2227 344.889,49.2227 377,113.5C 385.081,132.226 390.581,151.559 393.5,171.5C 393.5,188.167 393.5,204.833 393.5,221.5C 381.672,294.829 342.005,346.996 274.5,378C 252.842,386.694 230.509,391.861 207.5,393.5C 200.5,393.5 193.5,393.5 186.5,393.5C 109.549,386.622 53.3826,348.955 18,280.5C 7.90011,258.425 1.73344,235.425 -0.5,211.5C -0.5,202.167 -0.5,192.833 -0.5,183.5C 1.33088,161.171 6.49755,139.504 15,118.5C 46.0042,50.995 98.1709,11.3284 171.5,-0.5 Z"/></g>
<g><path style="opacity:1" fill="#fefffe" d="M 222.5,-0.5 C 279.5,-0.5 336.5,-0.5 393.5,-0.5C 393.5,56.8333 393.5,114.167 393.5,171.5C 390.581,151.559 385.081,132.226 377,113.5C 344.889,49.2227 293.389,11.2227 222.5,-0.5 Z"/></g>
<g><path style="opacity:1" fill="#f6decf" d="M 223.5,226.5 C 216.833,226.5 210.167,226.5 203.5,226.5C 202.704,213.545 202.204,200.545 202,187.5C 200.969,184.461 199.135,181.961 196.5,180C 192.653,178.384 188.653,177.384 184.5,177C 162.836,176.5 141.169,176.333 119.5,176.5C 119.167,172.5 118.833,168.5 118.5,164.5C 114.123,164.423 109.79,163.923 105.5,163C 103.697,162.363 102.364,161.197 101.5,159.5C 106.472,152.028 111.639,144.695 117,137.5C 120.329,101.839 139.496,80.3393 174.5,73C 206.777,71.3831 229.61,85.2164 243,114.5C 249.134,137.563 248.801,160.563 242,183.5C 238.395,193.724 232.561,202.391 224.5,209.5C 223.505,215.128 223.171,220.794 223.5,226.5 Z"/></g>
<g><path style="opacity:1" fill="#f5decf" d="M 190.5,226.5 C 182.833,226.5 175.167,226.5 167.5,226.5C 167.82,223.102 167.487,219.768 166.5,216.5C 155.339,211.921 146.006,204.921 138.5,195.5C 151.071,190.605 164.071,188.438 177.5,189C 184.097,191.263 188.264,195.763 190,202.5C 190.5,210.493 190.666,218.493 190.5,226.5 Z"/></g>
<g><path style="opacity:1" fill="#fefffe" d="M -0.5,211.5 C 1.73344,235.425 7.90011,258.425 18,280.5C 53.3826,348.955 109.549,386.622 186.5,393.5C 124.167,393.5 61.8333,393.5 -0.5,393.5C -0.5,332.833 -0.5,272.167 -0.5,211.5 Z"/></g>
<g><path style="opacity:1" fill="#fefffe" d="M 393.5,221.5 C 393.5,278.833 393.5,336.167 393.5,393.5C 331.5,393.5 269.5,393.5 207.5,393.5C 230.509,391.861 252.842,386.694 274.5,378C 342.005,346.996 381.672,294.829 393.5,221.5 Z"/></g>
<g><path style="opacity:1" fill="#00bc7d" d="M 167.5,226.5 C 175.167,226.5 182.833,226.5 190.5,226.5C 191.33,236.659 191.83,246.992 192,257.5C 192.471,259.246 193.138,260.913 194,262.5C 203.944,271.473 203.777,280.307 193.5,289C 185.803,289.738 178.47,291.738 171.5,295C 166.379,299.74 163.212,305.573 162,312.5C 161.501,318.157 161.334,323.824 161.5,329.5C 138.5,329.5 115.5,329.5 92.5,329.5C 93.8333,277.802 118.833,243.468 167.5,226.5 Z"/></g>
<g><path style="opacity:1" fill="#00bc7d" d="M 203.5,226.5 C 210.167,226.5 216.833,226.5 223.5,226.5C 274.968,241.328 301.302,275.661 302.5,329.5C 259.167,329.5 215.833,329.5 172.5,329.5C 172.058,323.161 172.725,316.994 174.5,311C 180.164,312.649 185.831,314.649 191.5,317C 208.518,321.951 223.018,317.784 235,304.5C 245.703,288.316 244.869,272.816 232.5,258C 229.661,256.08 226.661,254.413 223.5,253C 218.133,252.597 212.799,251.93 207.5,251C 205.714,250.215 204.214,249.049 203,247.5C 202.179,240.321 202.345,233.321 203.5,226.5 Z"/></g>
</svg>
