<?xml version="1.0" encoding="UTF-8"?>
<!DOCTYPE svg PUBLIC "-//W3C//DTD SVG 1.1//EN" "http://www.w3.org/Graphics/SVG/1.1/DTD/svg11.dtd">
<svg xmlns="http://www.w3.org/2000/svg" version="1.1" width="394px" height="394px" style="shape-rendering:geometricPrecision; text-rendering:geometricPrecision; image-rendering:optimizeQuality; fill-rule:evenodd; clip-rule:evenodd" xmlns:xlink="http://www.w3.org/1999/xlink">
<g><path style="opacity:1" fill="#fefffe" d="M -0.5,-0.5 C 56.5,-0.5 113.5,-0.5 170.5,-0.5C 98.6341,11.3461 46.8008,50.0128 15,115.5C 7.65437,133.351 2.4877,151.685 -0.5,170.5C -0.5,113.5 -0.5,56.5 -0.5,-0.5 Z"/></g>
<g><path style="opacity:1" fill="#91e0dd" d="M 170.5,-0.5 C 187.833,-0.5 205.167,-0.5 222.5,-0.5C 296.022,12.186 348.189,52.5194 379,120.5C 386.849,140.599 391.682,161.266 393.5,182.5C 393.5,191.5 393.5,200.5 393.5,209.5C 384.897,288.569 344.563,344.736 272.5,378C 199.719,404.977 132.385,395.311 70.5,349C 30.7815,315.065 7.11486,272.232 -0.5,220.5C -0.5,203.833 -0.5,187.167 -0.5,170.5C 2.4877,151.685 7.65437,133.351 15,115.5C 46.8008,50.0128 98.6341,11.3461 170.5,-0.5 Z"/></g>
<g><path style="opacity:1" fill="#fefffe" d="M 222.5,-0.5 C 279.5,-0.5 336.5,-0.5 393.5,-0.5C 393.5,60.5 393.5,121.5 393.5,182.5C 391.682,161.266 386.849,140.599 379,120.5C 348.189,52.5194 296.022,12.186 222.5,-0.5 Z"/></g>
<g><path style="opacity:1" fill="#f6dfcf" d="M 187.5,54.5 C 213.955,51.4748 233.455,61.4748 246,84.5C 249.294,95.5043 250.127,106.671 248.5,118C 250.279,120.104 251.612,122.438 252.5,125C 251.768,132.508 250.935,140.008 250,147.5C 247.865,149.278 245.365,149.945 242.5,149.5C 238.981,162.889 233.981,175.722 227.5,188C 229.679,202.069 231.013,216.236 231.5,230.5C 230.797,247.349 222.63,258.683 207,264.5C 200.604,261.875 194.271,261.875 188,264.5C 171.99,258.525 163.823,246.858 163.5,229.5C 164.562,214.486 165.395,199.486 166,184.5C 159.96,173.38 155.293,161.713 152,149.5C 150.542,148.253 149.042,148.253 147.5,149.5C 146.522,149.023 145.689,148.357 145,147.5C 143.913,140.368 143.079,133.201 142.5,126C 142.396,123.855 143.063,122.021 144.5,120.5C 145.167,110.478 146.001,100.478 147,90.5C 153.628,70.7693 167.128,58.7693 187.5,54.5 Z"/></g>
<g><path style="opacity:1" fill="#fefffe" d="M 393.5,209.5 C 393.5,270.833 393.5,332.167 393.5,393.5C 262.167,393.5 130.833,393.5 -0.5,393.5C -0.5,335.833 -0.5,278.167 -0.5,220.5C 7.11486,272.232 30.7815,315.065 70.5,349C 132.385,395.311 199.719,404.977 272.5,378C 344.563,344.736 384.897,288.569 393.5,209.5 Z"/></g>
<g><path style="opacity:1" fill="#00bc7c" d="M 153.5,212.5 C 154.33,221.658 154.83,230.991 155,240.5C 159.362,259.197 170.862,271.03 189.5,276C 190.878,277.713 192.545,279.047 194.5,280C 190.77,296.559 195.103,310.559 207.5,322C 224.071,331.862 239.238,330.029 253,316.5C 259.58,306.51 262.247,295.51 261,283.5C 268.977,279.587 271.977,273.254 270,264.5C 265.04,254.439 257.54,251.939 247.5,257C 238.834,264.661 238.5,272.661 246.5,281C 248.65,282.411 250.984,283.245 253.5,283.5C 255.833,295.653 252.833,306.153 244.5,315C 228.895,324.647 215.395,322.147 204,307.5C 200.496,298.443 199.662,289.11 201.5,279.5C 203.303,278.863 204.636,277.697 205.5,276C 226.262,270.243 238.095,256.743 241,235.5C 241.5,228.174 241.666,220.841 241.5,213.5C 257.736,217.648 274.069,221.481 290.5,225C 302.659,228.509 311.825,235.675 318,246.5C 325.269,268.013 327.603,290.013 325,312.5C 321.574,317.306 317.074,320.806 311.5,323C 289.479,330.838 266.812,335.838 243.5,338C 198.453,343.525 153.786,341.191 109.5,331C 97.0608,328.633 85.3941,324.299 74.5,318C 69.4291,313.289 67.4291,307.456 68.5,300.5C 68.393,282.017 71.2264,264.017 77,246.5C 83.1746,235.675 92.3412,228.509 104.5,225C 117.805,221.872 131.138,218.872 144.5,216C 147.718,215.1 150.718,213.933 153.5,212.5 Z"/></g>
<g><path style="opacity:1" fill="#090a0b" d="M 251.5,261.5 C 262.528,260.401 265.861,264.901 261.5,275C 252.628,279.129 248.128,276.296 248,266.5C 248.997,264.677 250.164,263.01 251.5,261.5 Z"/></g>
<g><path style="opacity:1" fill="#d1dae7" d="M 124.5,264.5 C 127.777,264.216 130.943,264.549 134,265.5C 134.499,270.155 134.666,274.821 134.5,279.5C 139.179,279.334 143.845,279.501 148.5,280C 149.833,282.667 149.833,285.333 148.5,288C 143.845,288.499 139.179,288.666 134.5,288.5C 134.666,293.179 134.499,297.845 134,302.5C 130.943,303.451 127.777,303.784 124.5,303.5C 124.5,298.5 124.5,293.5 124.5,288.5C 119.5,288.5 114.5,288.5 109.5,288.5C 109.5,285.5 109.5,282.5 109.5,279.5C 114.5,279.5 119.5,279.5 124.5,279.5C 124.5,274.5 124.5,269.5 124.5,264.5 Z"/></g>
</svg>
