<?xml version="1.0" encoding="UTF-8"?>
<!DOCTYPE svg PUBLIC "-//W3C//DTD SVG 1.1//EN" "http://www.w3.org/Graphics/SVG/1.1/DTD/svg11.dtd">
<svg xmlns="http://www.w3.org/2000/svg" version="1.1" width="397px" height="394px" style="shape-rendering:geometricPrecision; text-rendering:geometricPrecision; image-rendering:optimizeQuality; fill-rule:evenodd; clip-rule:evenodd" xmlns:xlink="http://www.w3.org/1999/xlink">
<g><path style="opacity:1" fill="#90e0dd" d="M 178.5,-0.5 C 191.833,-0.5 205.167,-0.5 218.5,-0.5C 303.982,12.1426 360.482,59.4759 388,141.5C 405.72,211.945 391.053,274.611 344,329.5C 322.418,352.374 296.918,369.374 267.5,380.5C 267.741,363.251 267.741,346.084 267.5,329C 283.446,318.109 298.946,306.609 314,294.5C 320.906,286.434 321.24,278.101 315,269.5C 297.167,251 279.333,232.5 261.5,214C 253.353,206.985 244.353,205.151 234.5,208.5C 231.543,200.023 230.543,191.356 231.5,182.5C 232.552,182.649 233.552,182.483 234.5,182C 248.717,163.564 254.051,142.897 250.5,120C 260.954,118.296 267.454,122.463 270,132.5C 270.742,141.029 272.408,149.362 275,157.5C 281.484,167.888 289.984,170.054 300.5,164C 293.526,163.023 289.026,159.19 287,152.5C 286.333,147.167 286.333,141.833 287,136.5C 295.295,115.588 288.795,101.421 267.5,94C 261.774,92.8956 256.44,93.8956 251.5,97C 248.645,99.8551 245.812,102.688 243,105.5C 238.602,100.096 233.769,94.9296 228.5,90C 219.079,83.7286 208.746,81.3952 197.5,83C 177.475,85.9274 160.642,94.7608 147,109.5C 143.23,115.603 139.897,121.937 137,128.5C 135.925,141.011 141.092,150.011 152.5,155.5C 153.107,155.376 153.44,155.043 153.5,154.5C 154.901,154.971 156.234,155.638 157.5,156.5C 161.182,165.192 164.848,173.859 168.5,182.5C 168.489,184.017 167.823,185.184 166.5,186C 167.905,187.269 169.571,187.769 171.5,187.5C 173.713,190.592 175.379,193.926 176.5,197.5C 178.461,199.963 180.628,202.297 183,204.5C 183.671,203.748 184.504,203.414 185.5,203.5C 188.37,204.078 190.037,205.745 190.5,208.5C 175.648,217.545 169.314,230.879 171.5,248.5C 171.672,249.492 171.338,250.158 170.5,250.5C 169.094,250.973 168.427,251.973 168.5,253.5C 164.257,263.266 163.59,273.266 166.5,283.5C 166.48,284.726 166.147,285.726 165.5,286.5C 163.973,286.427 162.973,287.094 162.5,288.5C 162.158,289.338 161.492,289.672 160.5,289.5C 158.973,289.427 157.973,290.094 157.5,291.5C 157.5,292.167 157.167,292.5 156.5,292.5C 154.973,292.427 153.973,293.094 153.5,294.5C 153.167,295.5 152.5,296.167 151.5,296.5C 147.833,298.167 145.167,300.833 143.5,304.5C 143.5,305.167 143.167,305.5 142.5,305.5C 140.738,306.262 139.738,307.596 139.5,309.5C 138.094,309.973 137.427,310.973 137.5,312.5C 136.094,312.973 135.427,313.973 135.5,315.5C 124.403,336.433 122.736,358.1 130.5,380.5C 64.3371,354.492 22.8371,306.825 6,237.5C -8.00641,154.071 18.1603,86.5714 84.5,35C 113.001,15.5792 144.335,3.74586 178.5,-0.5 Z"/></g>
<g><path style="opacity:1" fill="#454e55" d="M 231.5,182.5 C 228.169,179 225.002,175.334 222,171.5C 221.667,165.5 221.333,159.5 221,153.5C 217.181,146.763 212.181,145.763 206,150.5C 203.218,154.703 201.884,159.37 202,164.5C 198.167,158.667 194.333,152.833 190.5,147C 180.165,147.717 169.832,147.55 159.5,146.5C 154.414,147.268 152.414,149.935 153.5,154.5C 153.44,155.043 153.107,155.376 152.5,155.5C 141.092,150.011 135.925,141.011 137,128.5C 139.897,121.937 143.23,115.603 147,109.5C 160.642,94.7608 177.475,85.9274 197.5,83C 208.746,81.3952 219.079,83.7286 228.5,90C 233.769,94.9296 238.602,100.096 243,105.5C 245.812,102.688 248.645,99.8551 251.5,97C 256.44,93.8956 261.774,92.8956 267.5,94C 288.795,101.421 295.295,115.588 287,136.5C 286.333,141.833 286.333,147.167 287,152.5C 289.026,159.19 293.526,163.023 300.5,164C 289.984,170.054 281.484,167.888 275,157.5C 272.408,149.362 270.742,141.029 270,132.5C 267.454,122.463 260.954,118.296 250.5,120C 254.051,142.897 248.717,163.564 234.5,182C 233.552,182.483 232.552,182.649 231.5,182.5 Z"/></g>
<g><path style="opacity:1" fill="#ecdbd2" d="M 231.5,182.5 C 230.543,191.356 231.543,200.023 234.5,208.5C 231.371,218.491 224.704,222.991 214.5,222C 213.069,221.535 211.903,220.701 211,219.5C 209.534,215.971 208.534,212.305 208,208.5C 207.612,207.572 206.945,206.905 206,206.5C 200.983,208.214 195.817,208.881 190.5,208.5C 190.037,205.745 188.37,204.078 185.5,203.5C 188.584,200.336 190.918,196.67 192.5,192.5C 192.167,192.167 191.833,191.833 191.5,191.5C 186.476,193.506 181.476,195.506 176.5,197.5C 175.379,193.926 173.713,190.592 171.5,187.5C 173.284,184.192 172.284,182.525 168.5,182.5C 164.848,173.859 161.182,165.192 157.5,156.5C 156.234,155.638 154.901,154.971 153.5,154.5C 152.414,149.935 154.414,147.268 159.5,146.5C 169.832,147.55 180.165,147.717 190.5,147C 194.333,152.833 198.167,158.667 202,164.5C 201.884,159.37 203.218,154.703 206,150.5C 212.181,145.763 217.181,146.763 221,153.5C 221.333,159.5 221.667,165.5 222,171.5C 225.002,175.334 228.169,179 231.5,182.5 Z"/></g>
<g><path style="opacity:1" fill="#7c453c" d="M 167.5,154.5 C 170.808,153.974 172.974,155.307 174,158.5C 176.036,161.896 175.869,165.062 173.5,168C 168.902,169.091 166.069,167.257 165,162.5C 163.837,159.029 164.67,156.362 167.5,154.5 Z"/></g>
<g><path style="opacity:1" fill="#c38170" d="M 168.5,182.5 C 172.284,182.525 173.284,184.192 171.5,187.5C 169.571,187.769 167.905,187.269 166.5,186C 167.823,185.184 168.489,184.017 168.5,182.5 Z"/></g>
<g><path style="opacity:1" fill="#dc4455" d="M 185.5,203.5 C 184.504,203.414 183.671,203.748 183,204.5C 180.628,202.297 178.461,199.963 176.5,197.5C 181.476,195.506 186.476,193.506 191.5,191.5C 191.833,191.833 192.167,192.167 192.5,192.5C 190.918,196.67 188.584,200.336 185.5,203.5 Z"/></g>
<g><path style="opacity:1" fill="#00bc7c" d="M 234.5,208.5 C 244.353,205.151 253.353,206.985 261.5,214C 279.333,232.5 297.167,251 315,269.5C 321.24,278.101 320.906,286.434 314,294.5C 298.946,306.609 283.446,318.109 267.5,329C 267.741,346.084 267.741,363.251 267.5,380.5C 224.526,395.35 181.193,396.35 137.5,383.5C 125.391,350.193 132.391,321.693 158.5,298C 174.067,286.941 191.4,282.441 210.5,284.5C 210.859,282.234 210.192,280.401 208.5,279C 202.472,278.83 196.472,278.33 190.5,277.5C 188.098,261.138 194.098,248.971 208.5,241C 212.632,239.1 216.966,238.267 221.5,238.5C 221.808,236.076 221.474,233.743 220.5,231.5C 214.84,232.999 209.173,234.332 203.5,235.5C 203.762,234.022 203.429,232.689 202.5,231.5C 189.99,233.375 179.656,239.042 171.5,248.5C 169.314,230.879 175.648,217.545 190.5,208.5C 195.817,208.881 200.983,208.214 206,206.5C 206.945,206.905 207.612,207.572 208,208.5C 208.534,212.305 209.534,215.971 211,219.5C 211.903,220.701 213.069,221.535 214.5,222C 224.704,222.991 231.371,218.491 234.5,208.5 Z"/></g>
<g><path style="opacity:1" fill="#4b8a8d" d="M 137.5,383.5 C 135.013,382.677 132.679,381.677 130.5,380.5C 122.736,358.1 124.403,336.433 135.5,315.5C 136.906,315.027 137.573,314.027 137.5,312.5C 138.906,312.027 139.573,311.027 139.5,309.5C 141.262,308.738 142.262,307.404 142.5,305.5C 143.167,305.5 143.5,305.167 143.5,304.5C 146.5,302.167 149.167,299.5 151.5,296.5C 152.5,296.167 153.167,295.5 153.5,294.5C 155.027,294.573 156.027,293.906 156.5,292.5C 157.167,292.5 157.5,292.167 157.5,291.5C 159.027,291.573 160.027,290.906 160.5,289.5C 161.492,289.672 162.158,289.338 162.5,288.5C 164.027,288.573 165.027,287.906 165.5,286.5C 166.147,285.726 166.48,284.726 166.5,283.5C 163.59,273.266 164.257,263.266 168.5,253.5C 169.906,253.027 170.573,252.027 170.5,250.5C 171.338,250.158 171.672,249.492 171.5,248.5C 179.656,239.042 189.99,233.375 202.5,231.5C 203.429,232.689 203.762,234.022 203.5,235.5C 209.173,234.332 214.84,232.999 220.5,231.5C 221.474,233.743 221.808,236.076 221.5,238.5C 216.966,238.267 212.632,239.1 208.5,241C 194.098,248.971 188.098,261.138 190.5,277.5C 196.472,278.33 202.472,278.83 208.5,279C 210.192,280.401 210.859,282.234 210.5,284.5C 191.4,282.441 174.067,286.941 158.5,298C 132.391,321.693 125.391,350.193 137.5,383.5 Z"/></g>
<g><path style="opacity:1" fill="#00bc7c" d="M 191.5,240.5 C 192.833,240.5 194.167,240.5 195.5,240.5C 195.649,241.552 195.483,242.552 195,243.5C 185.329,253.51 181.496,265.343 183.5,279C 180.392,280.759 177.059,281.592 173.5,281.5C 169.079,263.053 175.079,249.386 191.5,240.5 Z"/></g>
<g><path style="opacity:1" fill="#00bc7c" d="M 170.5,250.5 C 170.573,252.027 169.906,253.027 168.5,253.5C 168.427,251.973 169.094,250.973 170.5,250.5 Z"/></g>
<g><path style="opacity:1" fill="#4b898d" d="M 217.5,328.5 C 217.167,328.5 216.833,328.5 216.5,328.5C 215.391,327.71 214.058,327.21 212.5,327C 228.667,310.167 244.833,293.333 261,276.5C 261.667,275.5 261.667,274.5 261,273.5C 256,268.5 251,263.5 246,258.5C 245.399,257.035 245.899,256.035 247.5,255.5C 255.466,261.798 262.799,268.798 269.5,276.5C 251.791,293.542 234.458,310.875 217.5,328.5 Z"/></g>
<g><path style="opacity:1" fill="#00bc7c" d="M 165.5,286.5 C 165.027,287.906 164.027,288.573 162.5,288.5C 162.973,287.094 163.973,286.427 165.5,286.5 Z"/></g>
<g><path style="opacity:1" fill="#00bc7c" d="M 160.5,289.5 C 160.027,290.906 159.027,291.573 157.5,291.5C 157.973,290.094 158.973,289.427 160.5,289.5 Z"/></g>
<g><path style="opacity:1" fill="#00bc7c" d="M 156.5,292.5 C 156.027,293.906 155.027,294.573 153.5,294.5C 153.973,293.094 154.973,292.427 156.5,292.5 Z"/></g>
<g><path style="opacity:1" fill="#00bc7c" d="M 151.5,296.5 C 149.167,299.5 146.5,302.167 143.5,304.5C 145.167,300.833 147.833,298.167 151.5,296.5 Z"/></g>
<g><path style="opacity:1" fill="#00bc7c" d="M 142.5,305.5 C 142.262,307.404 141.262,308.738 139.5,309.5C 139.738,307.596 140.738,306.262 142.5,305.5 Z"/></g>
<g><path style="opacity:1" fill="#00bc7c" d="M 139.5,309.5 C 139.573,311.027 138.906,312.027 137.5,312.5C 137.427,310.973 138.094,309.973 139.5,309.5 Z"/></g>
<g><path style="opacity:1" fill="#00bc7c" d="M 137.5,312.5 C 137.573,314.027 136.906,315.027 135.5,315.5C 135.427,313.973 136.094,312.973 137.5,312.5 Z"/></g>
<g><path style="opacity:1" fill="#e9c6b6" d="M 216.5,328.5 C 216.833,328.5 217.167,328.5 217.5,328.5C 218.791,328.263 219.791,328.596 220.5,329.5C 213.268,330.112 206.934,332.946 201.5,338C 199.257,339.136 196.924,339.97 194.5,340.5C 192.033,337.837 192.366,335.337 195.5,333C 202.11,328.905 209.11,327.405 216.5,328.5 Z"/></g>
<g><path style="opacity:1" fill="#4b8a8d" d="M 236.5,359.5 C 238.095,356.715 239.095,353.715 239.5,350.5C 249.037,345.142 258.203,339.142 267,332.5C 267.498,335.482 267.665,338.482 267.5,341.5C 257.058,346.754 247.225,353.087 238,360.5C 237.617,359.944 237.117,359.611 236.5,359.5 Z"/></g>
<g><path style="opacity:1" fill="#f2ded1" d="M 220.5,329.5 C 233.453,330.455 239.786,337.455 239.5,350.5C 239.095,353.715 238.095,356.715 236.5,359.5C 228.448,372.193 216.782,378.026 201.5,377C 199.34,376.004 197.673,374.504 196.5,372.5C 208.83,372.586 218.997,367.919 227,358.5C 228.867,356.09 228.867,353.756 227,351.5C 223.133,355.702 218.967,359.535 214.5,363C 207.608,365.53 200.941,368.03 194.5,370.5C 192.072,366.901 190.406,362.901 189.5,358.5C 203.008,359.246 213.341,353.913 220.5,342.5C 219.833,341.167 218.833,340.167 217.5,339.5C 212.009,345.745 205.342,350.245 197.5,353C 194.518,353.498 191.518,353.665 188.5,353.5C 188.218,347.974 190.218,343.641 194.5,340.5C 196.924,339.97 199.257,339.136 201.5,338C 206.934,332.946 213.268,330.112 220.5,329.5 Z"/></g>
<g><path style="opacity:1" fill="#e1b3a2" d="M 189.5,358.5 C 188.549,357.081 188.216,355.415 188.5,353.5C 191.518,353.665 194.518,353.498 197.5,353C 205.342,350.245 212.009,345.745 217.5,339.5C 218.833,340.167 219.833,341.167 220.5,342.5C 213.341,353.913 203.008,359.246 189.5,358.5 Z"/></g>
<g><path style="opacity:1" fill="#e1b3a1" d="M 196.5,372.5 C 195.5,372.167 194.833,371.5 194.5,370.5C 200.941,368.03 207.608,365.53 214.5,363C 218.967,359.535 223.133,355.702 227,351.5C 228.867,353.756 228.867,356.09 227,358.5C 218.997,367.919 208.83,372.586 196.5,372.5 Z"/></g>
</svg>
