<?xml version="1.0" encoding="UTF-8"?>
<!DOCTYPE svg PUBLIC "-//W3C//DTD SVG 1.1//EN" "http://www.w3.org/Graphics/SVG/1.1/DTD/svg11.dtd">
<svg xmlns="http://www.w3.org/2000/svg" version="1.1" width="217px" height="46px" style="shape-rendering:geometricPrecision; text-rendering:geometricPrecision; image-rendering:optimizeQuality; fill-rule:evenodd; clip-rule:evenodd" xmlns:xlink="http://www.w3.org/1999/xlink">
<g><path style="opacity:1" fill="#fefefe" d="M -0.5,-0.5 C 71.8333,-0.5 144.167,-0.5 216.5,-0.5C 216.5,14.8333 216.5,30.1667 216.5,45.5C 144.167,45.5 71.8333,45.5 -0.5,45.5C -0.5,30.1667 -0.5,14.8333 -0.5,-0.5 Z"/></g>
<g><path style="opacity:1" fill="#00bc7c" d="M 13.5,7.5 C 23.9833,7.37733 29.9833,12.3773 31.5,22.5C 31.4913,25.684 30.4913,28.5173 28.5,31C 29.8782,32.7134 31.5448,34.0467 33.5,35C 30.522,39.6197 27.6887,39.453 25,34.5C 12.1715,39.6685 4.00486,35.6685 0.5,22.5C 1.70305,14.6393 6.03638,9.63933 13.5,7.5 Z"/></g>
<g><path style="opacity:1" fill="#00bc7c" d="M 59.5,7.5 C 64.4928,7.99704 65.4928,10.1637 62.5,14C 57.3823,13.8242 56.3823,11.6576 59.5,7.5 Z"/></g>
<g><path style="opacity:1" fill="#00bc7c" d="M 89.5,7.5 C 91.8333,7.5 94.1667,7.5 96.5,7.5C 96.3339,13.1764 96.5006,18.8431 97,24.5C 98.3076,22.3586 99.8076,20.3586 101.5,18.5C 103.833,17.1667 106.167,17.1667 108.5,18.5C 106.115,20.8838 104.115,23.5505 102.5,26.5C 104.632,30.1312 107.299,33.2978 110.5,36C 107.833,36.6667 105.167,36.6667 102.5,36C 100.667,33.5 98.8333,31 97,28.5C 96.5026,31.146 96.3359,33.8127 96.5,36.5C 94.1667,36.5 91.8333,36.5 89.5,36.5C 89.5,26.8333 89.5,17.1667 89.5,7.5 Z"/></g>
<g><path style="opacity:1" fill="#00bc7c" d="M 123.5,7.5 C 128.686,7.46169 133.353,8.96169 137.5,12C 135.333,12.8333 133.833,14.3333 133,16.5C 126.867,11.9108 121.867,12.9108 118,19.5C 116.667,26.1672 119.334,30.1672 126,31.5C 128.7,31.2695 131.033,30.2695 133,28.5C 134.5,30 136,31.5 137.5,33C 130.733,37.257 123.733,37.5903 116.5,34C 108.397,25.7115 108.73,17.7115 117.5,10C 119.611,9.15532 121.611,8.32198 123.5,7.5 Z"/></g>
<g><path style="opacity:1" fill="#00bc7c" d="M 140.5,7.5 C 142.833,7.5 145.167,7.5 147.5,7.5C 147.5,17.1667 147.5,26.8333 147.5,36.5C 145.167,36.5 142.833,36.5 140.5,36.5C 140.5,26.8333 140.5,17.1667 140.5,7.5 Z"/></g>
<g><path style="opacity:1" fill="#00bc7c" d="M 153.5,7.5 C 158.493,7.99704 159.493,10.1637 156.5,14C 151.382,13.8242 150.382,11.6576 153.5,7.5 Z"/></g>
<g><path style="opacity:1" fill="#00bc7c" d="M 188.5,7.5 C 193.493,7.99704 194.493,10.1637 191.5,14C 186.382,13.8242 185.382,11.6576 188.5,7.5 Z"/></g>
<g><path style="opacity:1" fill="#fefffe" d="M 13.5,13.5 C 22.6493,13.1562 26.1493,17.4896 24,26.5C 22.3333,24.8333 20.6667,23.1667 19,21.5C 18.2155,23.286 17.0488,24.786 15.5,26C 17.4552,26.9533 19.1218,28.2866 20.5,30C 11.5443,32.3853 7.37759,28.8853 8,19.5C 9.02088,16.6499 10.8542,14.6499 13.5,13.5 Z"/></g>
<g><path style="opacity:1" fill="#00bc7c" d="M 75.5,16.5 C 79.7564,15.9805 83.4231,17.1472 86.5,20C 83.5775,23.217 79.9109,24.217 75.5,23C 72.93,25.9146 73.2634,28.5813 76.5,31C 78.7008,31.8249 80.5341,31.3249 82,29.5C 83.5,31 85,32.5 86.5,34C 82.5174,36.4355 78.184,37.1022 73.5,36C 67.5333,32.6076 66.0333,27.7742 69,21.5C 70.8049,19.1743 72.9716,17.5077 75.5,16.5 Z"/></g>
<g><path style="opacity:1" fill="#00bc7c" d="M 172.5,16.5 C 175.747,16.4152 178.581,17.4152 181,19.5C 182.404,25.0438 182.904,30.7104 182.5,36.5C 180.167,36.5 177.833,36.5 175.5,36.5C 175.5,31.8333 175.5,27.1667 175.5,22.5C 173.533,22.2606 171.699,22.5939 170,23.5C 169.501,27.8206 169.334,32.1539 169.5,36.5C 167.167,36.5 164.833,36.5 162.5,36.5C 162.5,30.1667 162.5,23.8333 162.5,17.5C 166.042,17.8128 169.375,17.4794 172.5,16.5 Z"/></g>
<g><path style="opacity:1" fill="#00bc7c" d="M 204.5,16.5 C 208.756,15.9805 212.423,17.1472 215.5,20C 212.578,23.217 208.911,24.217 204.5,23C 201.93,25.9146 202.263,28.5813 205.5,31C 207.701,31.8249 209.534,31.3249 211,29.5C 212.5,31 214,32.5 215.5,34C 211.517,36.4355 207.184,37.1022 202.5,36C 196.533,32.6076 195.033,27.7742 198,21.5C 199.805,19.1743 201.972,17.5077 204.5,16.5 Z"/></g>
<g><path style="opacity:1" fill="#00bc7c" d="M 35.5,17.5 C 37.5,17.5 39.5,17.5 41.5,17.5C 41.3343,21.8461 41.501,26.1794 42,30.5C 43.6667,31.8333 45.3333,31.8333 47,30.5C 47.499,26.1794 47.6657,21.8461 47.5,17.5C 49.8333,17.5 52.1667,17.5 54.5,17.5C 54.8254,22.5988 54.3254,27.5988 53,32.5C 47.4053,37.7729 41.7386,37.7729 36,32.5C 35.5007,27.5111 35.3341,22.5111 35.5,17.5 Z"/></g>
<g><path style="opacity:1" fill="#00bc7c" d="M 57.5,17.5 C 59.8333,17.5 62.1667,17.5 64.5,17.5C 64.5,23.8333 64.5,30.1667 64.5,36.5C 62.1667,36.5 59.8333,36.5 57.5,36.5C 57.5,30.1667 57.5,23.8333 57.5,17.5 Z"/></g>
<g><path style="opacity:1" fill="#00bc7c" d="M 151.5,17.5 C 153.833,17.5 156.167,17.5 158.5,17.5C 158.5,23.8333 158.5,30.1667 158.5,36.5C 156.167,36.5 153.833,36.5 151.5,36.5C 151.5,30.1667 151.5,23.8333 151.5,17.5 Z"/></g>
<g><path style="opacity:1" fill="#00bc7c" d="M 186.5,17.5 C 188.833,17.5 191.167,17.5 193.5,17.5C 193.5,23.8333 193.5,30.1667 193.5,36.5C 191.167,36.5 188.833,36.5 186.5,36.5C 186.5,30.1667 186.5,23.8333 186.5,17.5 Z"/></g>
</svg>
