<?xml version="1.0" encoding="UTF-8"?>
<!DOCTYPE svg PUBLIC "-//W3C//DTD SVG 1.1//EN" "http://www.w3.org/Graphics/SVG/1.1/DTD/svg11.dtd">
<svg xmlns="http://www.w3.org/2000/svg" version="1.1" width="397px" height="394px" style="shape-rendering:geometricPrecision; text-rendering:geometricPrecision; image-rendering:optimizeQuality; fill-rule:evenodd; clip-rule:evenodd" xmlns:xlink="http://www.w3.org/1999/xlink">
<g><path style="opacity:1" fill="#91e1dd" d="M 177.5,-0.5 C 190.833,-0.5 204.167,-0.5 217.5,-0.5C 298.908,11.4089 354.408,55.7423 384,132.5C 406.717,210.122 390.55,278.289 335.5,337C 274.468,391.998 204.801,406.332 126.5,380C 51.8802,348.013 10.0468,291.513 1,210.5C -2.49191,143.343 21.0081,87.8434 71.5,44C 102.538,18.9824 137.871,4.14903 177.5,-0.5 Z"/></g>
<g><path style="opacity:1" fill="#a4e1da" d="M 200.5,72.5 C 231.65,71.3779 258.484,81.3779 281,102.5C 306.728,133.798 314.061,169.131 303,208.5C 299.693,219.447 295.026,229.78 289,239.5C 280.667,249.833 272.333,260.167 264,270.5C 257.568,279.793 253.901,290.126 253,301.5C 252.5,311.828 252.334,322.161 252.5,332.5C 219.167,332.5 185.833,332.5 152.5,332.5C 152.946,318.76 152.446,305.093 151,291.5C 149.681,289.513 147.848,288.346 145.5,288C 138.14,287.617 130.807,286.95 123.5,286C 119.725,284.558 116.892,282.058 115,278.5C 112.176,260.926 110.009,243.26 108.5,225.5C 102.809,224.16 97.1424,222.66 91.5,221C 89.2589,219.261 87.5922,217.094 86.5,214.5C 94.7321,199.037 103.232,183.704 112,168.5C 113.584,110.75 143.084,78.7501 200.5,72.5 Z"/></g>
<g><path style="opacity:1" fill="#f6dece" d="M 201.5,73.5 C 247.28,72.6101 279.78,92.6101 299,133.5C 312.01,170.262 308.343,205.262 288,238.5C 279.667,248.833 271.333,259.167 263,269.5C 256.568,278.793 252.901,289.126 252,300.5C 251.5,310.828 251.334,321.161 251.5,331.5C 218.833,331.5 186.167,331.5 153.5,331.5C 153.946,317.76 153.446,304.093 152,290.5C 150.681,288.513 148.848,287.346 146.5,287C 139.14,286.617 131.807,285.95 124.5,285C 120.725,283.558 117.892,281.058 116,277.5C 113.176,259.926 111.009,242.26 109.5,224.5C 103.809,223.16 98.1424,221.66 92.5,220C 90.3234,218.503 88.99,216.503 88.5,214C 96.2586,198.986 104.425,184.153 113,169.5C 114.584,111.75 144.084,79.7501 201.5,73.5 Z"/></g>
<g><path style="opacity:1" fill="#00bc7c" d="M 211.5,100.5 C 223.288,99.4591 229.788,104.792 231,116.5C 231.414,116.957 231.914,117.291 232.5,117.5C 233.884,114.418 235.217,111.251 236.5,108C 249.253,103.212 256.92,107.545 259.5,121C 258.751,123.545 258.251,126.045 258,128.5C 259.183,129.731 260.349,129.731 261.5,128.5C 262.348,126.591 262.682,124.591 262.5,122.5C 272.394,123.228 277.227,128.561 277,138.5C 275.333,139.833 273.667,139.833 272,138.5C 271.13,139.108 270.63,139.941 270.5,141C 273.383,142.919 276.383,144.752 279.5,146.5C 286.826,155.728 285.826,163.895 276.5,171C 274.564,171.813 272.564,172.313 270.5,172.5C 270.33,173.822 270.663,174.989 271.5,176C 273.075,175.621 274.575,175.788 276,176.5C 278.924,188.756 274.09,195.756 261.5,197.5C 261.174,194.689 260.341,192.022 259,189.5C 255.282,186.384 252.282,182.718 250,178.5C 249.257,176.559 249.424,174.726 250.5,173C 249.135,171.318 247.635,171.151 246,172.5C 245.154,176.962 246.154,180.962 249,184.5C 258.288,191.637 259.788,200.137 253.5,210C 244.958,216.574 237.291,215.74 230.5,207.5C 234.918,203.115 236.085,198.115 234,192.5C 232.313,196.848 230.147,201.015 227.5,205C 219.568,211.311 212.068,210.811 205,203.5C 201.448,198.215 200.948,192.715 203.5,187C 201.268,183.672 199.768,184.172 199,188.5C 198.793,192.089 198.293,195.589 197.5,199C 188.025,201.762 181.025,198.762 176.5,190C 179.321,187.859 180.654,185.025 180.5,181.5C 179.448,181.351 178.448,181.517 177.5,182C 168.581,194.476 159.415,194.643 150,182.5C 148.892,178.914 148.392,175.247 148.5,171.5C 145.53,171.746 144.197,173.412 144.5,176.5C 134.026,173.901 129.859,167.234 132,156.5C 133.625,152.953 135.458,153.12 137.5,157C 139.909,158.707 142.575,159.54 145.5,159.5C 145.374,156.405 143.707,154.572 140.5,154C 131.736,143.814 133.07,135.147 144.5,128C 147.833,127.333 151.167,127.333 154.5,128C 157.255,129.953 160.255,131.12 163.5,131.5C 163.703,129.61 163.037,128.11 161.5,127C 158.178,124.668 154.511,123.502 150.5,123.5C 151.11,117.385 154.444,113.551 160.5,112C 163.964,111.183 167.298,111.517 170.5,113C 169.409,115.064 169.242,117.231 170,119.5C 170.718,120.451 171.551,120.617 172.5,120C 174.046,107.45 181.046,102.117 193.5,104C 196.102,104.883 198.269,106.383 200,108.5C 201.873,112.464 203.54,116.464 205,120.5C 206.299,119.91 207.132,118.91 207.5,117.5C 207.001,113.665 205.668,110.165 203.5,107C 205.776,104.211 208.443,102.044 211.5,100.5 Z"/></g>
<g><path style="opacity:1" fill="#b8cade" d="M 219.5,119.5 C 221.52,123.577 224.186,127.41 227.5,131C 232.512,133.753 237.845,135.587 243.5,136.5C 243,137.881 242,138.547 240.5,138.5C 236.772,137.652 233.105,136.652 229.5,135.5C 225.769,138.709 221.602,141.376 217,143.5C 216.5,143.167 216,142.833 215.5,142.5C 217.833,141 220.167,139.5 222.5,138C 224.01,136.649 225.01,134.982 225.5,133C 222.752,129.249 220.418,125.249 218.5,121C 219.056,120.617 219.389,120.117 219.5,119.5 Z"/></g>
<g><path style="opacity:1" fill="#bacadf" d="M 187.5,123.5 C 192.777,122.931 197.777,123.765 202.5,126C 201.975,126.692 201.308,127.192 200.5,127.5C 191.71,125.001 183.877,126.668 177,132.5C 175.176,131.251 175.343,130.085 177.5,129C 180.767,126.87 184.1,125.037 187.5,123.5 Z"/></g>
<g><path style="opacity:1" fill="#b9cadf" d="M 191.5,141.5 C 199.858,140.343 207.191,142.51 213.5,148C 219.293,157.564 227.626,161.064 238.5,158.5C 238.854,155.579 237.854,153.246 235.5,151.5C 239.141,151.946 241.641,154.28 243,158.5C 243.936,161.792 243.436,164.792 241.5,167.5C 240.526,165.257 240.192,162.924 240.5,160.5C 236.555,161.656 232.555,162.156 228.5,162C 225.756,161.197 223.089,160.197 220.5,159C 216.134,154.299 211.467,149.966 206.5,146C 186.29,141.05 176.957,148.883 178.5,169.5C 176.974,167.249 175.974,164.749 175.5,162C 176.361,158.863 177.027,155.697 177.5,152.5C 173.154,152.334 168.821,152.501 164.5,153C 161.692,157.26 159.359,161.76 157.5,166.5C 156.386,165.277 156.219,163.944 157,162.5C 158.107,159.121 159.607,155.954 161.5,153C 158.249,150.435 154.915,147.769 151.5,145C 152.5,144.333 153.5,144.333 154.5,145C 161.222,149.25 168.555,150.583 176.5,149C 181.798,147.018 186.798,144.518 191.5,141.5 Z"/></g>
<g><path style="opacity:1" fill="#bdcce0" d="M 250.5,142.5 C 262.475,147.115 266.308,155.449 262,167.5C 261,168.833 260,170.167 259,171.5C 258.5,171 258,170.5 257.5,170C 263.177,161.744 262.511,154.077 255.5,147C 253.377,146.185 251.377,145.185 249.5,144C 250.056,143.617 250.389,143.117 250.5,142.5 Z"/></g>
<g><path style="opacity:1" fill="#b9cadf" d="M 202.5,161.5 C 203.5,161.5 204.5,161.5 205.5,161.5C 205.811,167.289 208.144,172.122 212.5,176C 217.545,178.569 222.878,180.402 228.5,181.5C 228.167,182.5 227.5,183.167 226.5,183.5C 224.253,182.626 221.92,182.292 219.5,182.5C 219.679,187.467 218.179,191.8 215,195.5C 215.465,192.066 215.965,188.566 216.5,185C 216.167,183.5 215.833,182 215.5,180.5C 207.927,176.344 203.593,170.011 202.5,161.5 Z"/></g>
</svg>
