<?xml version="1.0" encoding="UTF-8"?>
<!DOCTYPE svg PUBLIC "-//W3C//DTD SVG 1.1//EN" "http://www.w3.org/Graphics/SVG/1.1/DTD/svg11.dtd">
<svg xmlns="http://www.w3.org/2000/svg" version="1.1" width="397px" height="394px" style="shape-rendering:geometricPrecision; text-rendering:geometricPrecision; image-rendering:optimizeQuality; fill-rule:evenodd; clip-rule:evenodd" xmlns:xlink="http://www.w3.org/1999/xlink">
<g><path style="opacity:1" fill="#90e0dd" d="M 177.5,-0.5 C 190.833,-0.5 204.167,-0.5 217.5,-0.5C 301.404,11.5661 357.571,57.5661 386,137.5C 406.982,217.187 388.149,285.687 329.5,343C 270.013,392.252 203.346,404.919 129.5,381C 59.0366,352.202 16.87,300.368 3,225.5C -5.86865,148.731 19.6313,86.2313 79.5,38C 108.89,16.8146 141.557,3.98125 177.5,-0.5 Z"/></g>
<g><path style="opacity:1" fill="#00bb7d" d="M 242.5,98.5 C 242.5,99.1667 242.833,99.5 243.5,99.5C 247.908,132.343 233.575,150.009 200.5,152.5C 184.197,152.778 173.031,145.444 167,130.5C 166.333,128.167 166.333,125.833 167,123.5C 168.049,122.483 169.216,122.316 170.5,123C 181.374,131.212 193.04,132.545 205.5,127C 214.063,119.002 215.563,109.836 210,99.5C 204.481,94.1019 197.815,91.4352 190,91.5C 180.701,92.0695 171.534,93.4029 162.5,95.5C 162.167,95.5 161.833,95.5 161.5,95.5C 169.769,80.6003 182.602,72.9337 200,72.5C 219.311,72.8993 233.477,81.566 242.5,98.5 Z"/></g>
<g><path style="opacity:1" fill="#f6dece" d="M 243.5,99.5 C 268.34,109.506 286.174,126.839 297,151.5C 300.76,161.539 303.427,171.873 305,182.5C 306.026,197.975 306.859,213.308 307.5,228.5C 305.821,244.919 303.488,261.253 300.5,277.5C 300.5,277.833 300.5,278.167 300.5,278.5C 299.178,278.33 298.011,278.663 297,279.5C 286.288,310.878 264.788,330.378 232.5,338C 207.674,343.079 183.007,342.413 158.5,336C 129.333,326.833 110.167,307.667 101,278.5C 100.329,277.748 99.4959,277.414 98.5,277.5C 95.022,261.678 92.6886,245.678 91.5,229.5C 92.4492,222.67 92.4492,215.67 91.5,208.5C 91.2553,184.55 96.422,161.883 107,140.5C 115.117,126.049 126.284,114.549 140.5,106C 147.834,102.163 155.167,98.6634 162.5,95.5C 171.534,93.4029 180.701,92.0695 190,91.5C 197.815,91.4352 204.481,94.1019 210,99.5C 215.563,109.836 214.063,119.002 205.5,127C 193.04,132.545 181.374,131.212 170.5,123C 169.216,122.316 168.049,122.483 167,123.5C 166.333,125.833 166.333,128.167 167,130.5C 173.031,145.444 184.197,152.778 200.5,152.5C 233.575,150.009 247.908,132.343 243.5,99.5 Z"/></g>
<g><path style="opacity:1" fill="#a5e0da" d="M 161.5,95.5 C 161.833,95.5 162.167,95.5 162.5,95.5C 155.167,98.6634 147.834,102.163 140.5,106C 126.284,114.549 115.117,126.049 107,140.5C 96.422,161.883 91.2553,184.55 91.5,208.5C 92.4492,215.67 92.4492,222.67 91.5,229.5C 91.1667,229.5 90.8333,229.5 90.5,229.5C 89.9982,212.523 90.8315,195.523 93,178.5C 99.3663,137.031 122.2,109.364 161.5,95.5 Z"/></g>
<g><path style="opacity:1" fill="#a4e0da" d="M 308.5,228.5 C 308.167,228.5 307.833,228.5 307.5,228.5C 306.859,213.308 306.026,197.975 305,182.5C 303.427,171.873 300.76,161.539 297,151.5C 286.174,126.839 268.34,109.506 243.5,99.5C 242.833,99.5 242.5,99.1667 242.5,98.5C 243.117,98.3893 243.617,98.056 244,97.5C 278.106,112.619 298.439,138.619 305,175.5C 305.83,180.143 306.497,184.81 307,189.5C 307.185,202.575 307.685,215.575 308.5,228.5 Z"/></g>
<g><path style="opacity:1" fill="#302c2b" d="M 145.5,221.5 C 162.74,222.98 167.906,231.647 161,247.5C 149.386,256.026 140.719,253.693 135,240.5C 134.32,231.86 137.82,225.527 145.5,221.5 Z"/></g>
<g><path style="opacity:1" fill="#302b2b" d="M 246.5,221.5 C 262.558,222.376 268.058,230.376 263,245.5C 258.748,251.588 252.915,253.754 245.5,252C 235.975,246.424 233.475,238.591 238,228.5C 240.441,225.546 243.275,223.213 246.5,221.5 Z"/></g>
<g><path style="opacity:1" fill="#edc493" d="M 307.5,228.5 C 307.833,228.5 308.167,228.5 308.5,228.5C 319.837,240.995 321.003,254.328 312,268.5C 308.864,272.478 305.031,275.478 300.5,277.5C 303.488,261.253 305.821,244.919 307.5,228.5 Z"/></g>
<g><path style="opacity:1" fill="#edc493" d="M 90.5,229.5 C 90.8333,229.5 91.1667,229.5 91.5,229.5C 92.6886,245.678 95.022,261.678 98.5,277.5C 98.1667,277.5 97.8333,277.5 97.5,277.5C 79.1239,263.767 76.7905,247.767 90.5,229.5 Z"/></g>
<g><path style="opacity:1" fill="#dca88b" d="M 187.5,250.5 C 195.84,250.334 204.173,250.5 212.5,251C 214.978,252.938 215.145,255.105 213,257.5C 205.835,264.455 198.001,265.288 189.5,260C 186.586,257.261 185.919,254.094 187.5,250.5 Z"/></g>
<g><path style="opacity:1" fill="#a5e0da" d="M 97.5,277.5 C 97.8333,277.5 98.1667,277.5 98.5,277.5C 99.4959,277.414 100.329,277.748 101,278.5C 110.167,307.667 129.333,326.833 158.5,336C 183.007,342.413 207.674,343.079 232.5,338C 264.788,330.378 286.288,310.878 297,279.5C 298.011,278.663 299.178,278.33 300.5,278.5C 299.828,279.267 298.995,279.934 298,280.5C 287.288,311.878 265.788,331.378 233.5,339C 208.009,344.103 182.675,343.437 157.5,337C 128.333,327.833 109.167,308.667 100,279.5C 99.0053,278.934 98.172,278.267 97.5,277.5 Z"/></g>
<g><path style="opacity:1" fill="#444444" d="M 171.5,282.5 C 180.139,284.792 188.972,286.125 198,286.5C 207.053,286.515 215.887,285.181 224.5,282.5C 229.551,283.329 230.718,285.996 228,290.5C 208.002,307.164 188.668,306.498 170,288.5C 169.252,286.16 169.752,284.16 171.5,282.5 Z"/></g>
</svg>
