<?xml version="1.0" encoding="UTF-8"?>
<svg version="1.1" xmlns="http://www.w3.org/2000/svg" width="360" height="351">
<path d="M0 0 C5.10692988 3.66104774 9.15639127 8.19441251 13.21875 12.94921875 C19.9485836 20.69738243 26.42803877 27.43678168 37.14111328 28.23364258 C38.35524902 28.28673584 39.56938477 28.3398291 40.8203125 28.39453125 C42.17452055 28.4633835 43.52868627 28.53307258 44.8828125 28.60351562 C46.99523974 28.7101127 49.10736869 28.81177495 51.22070312 28.89868164 C62.3602198 29.36894111 71.6610173 30.73230589 80.4296875 38.046875 C85.62395034 44.50740092 87.08150557 51.88660582 88.5625 59.875 C89.3344927 63.92605083 90.13608314 67.96748737 91 72 C91.18933105 72.89235352 91.37866211 73.78470703 91.57373047 74.70410156 C94.32715788 85.67167609 101.89835553 91.04996974 111 97 C120.81308926 103.41512403 129.16109403 110.12320383 132 122 C133.11536643 131.86798741 130.88919789 139.54652829 127.0625 148.5625 C126.13526216 150.83404139 125.20941833 153.10615244 124.28515625 155.37890625 C123.66459351 156.85725952 123.66459351 156.85725952 123.03149414 158.36547852 C118.39759086 170.20085138 122.45717405 179.86456916 127 191 C131.32086005 201.65376519 134.54581869 211.53167376 130.21875 222.75 C125.76173925 230.97832754 118.68862151 236.22122925 110.9375 241.125 C99.96295734 248.13002723 93.32031247 255.12255321 90.28833008 268.02954102 C89.47318107 272.30999016 88.73199362 276.5994718 88.02148438 280.8984375 C86.48162161 289.40138341 83.86351659 296.00447581 77.25 301.8125 C76.65703125 302.35519531 76.0640625 302.89789063 75.453125 303.45703125 C66.22967818 309.25840306 55.56431829 308.69616477 45.015625 309.08398438 C27.04534033 309.97708587 18.86550681 318.75357043 7 331.30273438 C0.71153734 337.75700611 -5.96639876 342.04844587 -15.1875 342.25 C-25.09169956 342.04165923 -32.75388105 337.04103038 -41.10546875 332.2265625 C-56.64667498 323.27802415 -64.95227477 323.47338682 -82.22070312 327.8671875 C-93.57468806 330.63806122 -102.28742567 331.12781994 -113 326 C-122.50817518 319.90041592 -126.99292697 307.3617029 -131.76757812 297.50390625 C-136.93488964 287.28858622 -142.33217673 283.85236937 -153.12890625 280.2109375 C-154.36511719 279.81132812 -155.60132813 279.41171875 -156.875 279 C-178.13952624 272.08289283 -178.13952624 272.08289283 -183.4375 263.625 C-184.11619141 262.59246094 -184.11619141 262.59246094 -184.80859375 261.5390625 C-187.71204947 255.35136998 -188.28541184 249.79401082 -187.6875 243.0625 C-187.63698486 242.33595215 -187.58646973 241.6094043 -187.53442383 240.86083984 C-187.26822494 237.06883059 -186.93279336 233.28701497 -186.5625 229.50390625 C-185.41993821 217.02010461 -186.95358365 209.49915448 -194.98925781 199.68823242 C-196.85468491 197.46174713 -198.74026845 195.25368021 -200.62890625 193.046875 C-206.87307551 185.68871446 -211.06814057 179.1236551 -211.3125 169.375 C-211.34988281 168.41335937 -211.38726562 167.45171875 -211.42578125 166.4609375 C-210.31862844 157.46151189 -205.94622552 151.02131587 -200.0625 144.375 C-189.49596819 132.3996711 -189.49596819 132.3996711 -185.98828125 117.1953125 C-186.08479216 115.83767024 -186.19336788 114.48084453 -186.3125 113.125 C-186.36374023 112.39466553 -186.41498047 111.66433105 -186.46777344 110.91186523 C-186.684258 107.84467263 -186.93063872 104.78102475 -187.20263672 101.71826172 C-188.25209785 89.87654255 -188.32982739 80.74152421 -180.890625 70.88671875 C-173.67508666 63.68608854 -165.20880197 61.47623293 -155.69140625 58.48242188 C-145.16675074 55.03721309 -137.78259418 51.66148417 -132.35449219 41.68505859 C-131.90750977 40.79898926 -131.46052734 39.91291992 -131 39 C-130.55043945 38.1229541 -130.10087891 37.2459082 -129.63769531 36.34228516 C-127.83298488 32.77402893 -126.04934118 29.19739112 -124.3203125 25.59179688 C-120.64953835 18.30893827 -115.88705793 12.50035887 -108.3125 9.0625 C-98.12630688 5.84995985 -87.25836864 8.50656894 -77.25 11.0625 C-65.20650891 14.13729074 -57.50490191 15.05715659 -46.5625 8.8125 C-45.45781372 8.20619751 -45.45781372 8.20619751 -44.33081055 7.58764648 C-40.26621897 5.34026103 -36.27396221 2.98739505 -32.3125 0.5625 C-22.00603853 -5.6697154 -10.59098105 -6.07502974 0 0 Z " fill="#00BC7C" transform="translate(216,4)"/>
<path d="M0 0 C5.38881741 3.02851539 9.25954428 7.6905118 12.3125 13 C13.81061789 19.65830173 13.08154567 25.50567395 9.875 31.5 C7.00173719 35.55253847 3.62147065 38.47113675 -0.3125 41.4375 C-5.79108885 45.65437086 -11.17536112 49.9652664 -16.5 54.375 C-27.08217219 63.12656698 -37.72559643 71.8001413 -48.4609375 80.36328125 C-54.70956036 85.37500662 -60.91190285 90.44435655 -67.125 95.5 C-85.09826661 110.12498097 -85.09826661 110.12498097 -90.5546875 114.453125 C-92.59216321 116.07567405 -94.61451044 117.71323446 -96.6328125 119.359375 C-97.87999259 120.364851 -99.12738761 121.37006045 -100.375 122.375 C-100.9539502 122.85211426 -101.53290039 123.32922852 -102.12939453 123.82080078 C-108.12858589 128.61980899 -113.73121029 130.05349759 -121.390625 129.8671875 C-132.72267868 128.34545458 -141.06297487 115.71624781 -147.67578125 107.453125 C-150.38291484 104.18902134 -153.22559969 101.09235914 -156.125 98 C-160.58276842 93.24070958 -164.76110227 88.33851746 -168.84375 83.25 C-171.36212916 80.21414567 -174.00093928 77.32371267 -176.6875 74.4375 C-192.69268131 57.17843087 -192.69268131 57.17843087 -192.43359375 43.66015625 C-191.83318239 37.51163993 -189.06168782 34.17242656 -184.5 30.125 C-178.57929227 25.29018626 -172.56698882 25.96549252 -165.125 26.5 C-154.35007561 28.69859334 -146.03941276 42.53826204 -139.57421875 50.58203125 C-136.16087867 54.64864215 -132.52035685 58.48442637 -128.88061523 62.34765625 C-124.34317651 67.19261529 -120.1524716 72.21926685 -116.125 77.5 C-113.39451538 76.22217784 -111.12094754 74.83406328 -108.796875 72.91796875 C-108.17022949 72.40476074 -107.54358398 71.89155273 -106.89794922 71.36279297 C-106.23037598 70.80994629 -105.56280273 70.25709961 -104.875 69.6875 C-103.43494519 68.50645023 -101.9948396 67.32546239 -100.5546875 66.14453125 C-99.81959961 65.53947754 -99.08451172 64.93442383 -98.32714844 64.31103516 C-94.89401641 61.48764564 -91.44841889 58.67968593 -88 55.875 C-87.33581055 55.33447998 -86.67162109 54.79395996 -85.98730469 54.23706055 C-81.16862172 50.32468151 -76.29982697 46.48095471 -71.40917969 42.65917969 C-66.98469455 39.19404085 -62.60880148 35.67233371 -58.25 32.125 C-57.58226562 31.58174072 -56.91453125 31.03848145 -56.2265625 30.47875977 C-52.85064129 27.72892587 -49.48090061 24.97178323 -46.1171875 22.20703125 C-39.31212005 16.62519732 -32.44996758 11.13244228 -25.4375 5.8125 C-24.77814453 5.30710693 -24.11878906 4.80171387 -23.43945312 4.28100586 C-16.15908567 -1.18397525 -8.79996826 -3.86173364 0 0 Z " fill="#FDFEFD" transform="translate(267.125,109.5)"/>
</svg>
